<svg width="166" height="48" viewBox="0 0 166 48" fill="none" xmlns="http://www.w3.org/2000/svg">
<path d="M5.36575 0.0183096C3.32614 0.209228 1.52318 1.49729 0.618042 3.41411C0.339913 4.00469 0.159373 4.60545 0.0495854 5.3233C0.0154292 5.55495 0.0105497 7.2554 0.00323056 23.7151C-0.00408862 36.2012 0.000790831 41.9695 0.0203086 42.2292C0.0325073 42.4379 0.0569045 42.6874 0.0739826 42.7866L0.10082 42.9648L15.3881 27.0142L30.6755 11.0636L33.3592 13.8637L36.0429 16.6639L21.0264 32.3319L6.00984 48L23.3441 47.9924C39.3902 47.9873 40.6954 47.9822 40.9223 47.944C41.6298 47.8218 42.1495 47.6513 42.7082 47.3661C44.5014 46.4446 45.7017 44.6933 45.9652 42.6161C46.0116 42.2393 46.0116 5.75096 45.9652 5.37421C45.7017 3.29702 44.5014 1.54566 42.7082 0.624156C42.1495 0.339051 41.6298 0.168497 40.9223 0.0463095C40.6954 0.00812573 39.3877 0.00303291 23.1367 0.000487328C13.49 -0.00205826 5.49261 0.00558168 5.36575 0.0183096ZM22.4365 4.96692C23.3612 5.06874 24.1516 5.31058 25.0153 5.75605C25.6862 6.10225 26.3084 6.54773 26.8329 7.06193L27.0159 7.24267L19.0624 15.5413C14.6879 20.108 11.0967 23.8424 11.082 23.8424C11.0674 23.8424 10.9771 23.7533 10.8844 23.6464C9.75482 22.338 9.11805 20.8921 8.91067 19.1713C8.85456 18.7003 8.85456 17.8272 8.91067 17.3537C9.08633 15.8595 9.63039 14.4899 10.5087 13.3292C10.7429 13.0211 16.3762 7.11794 16.7568 6.78192C17.9621 5.72041 19.382 5.11202 21.0507 4.94655C21.3045 4.9211 22.1169 4.93383 22.4365 4.96692ZM39.5414 20.3321C40.8028 21.7983 41.4957 23.677 41.4957 25.6371C41.4957 27.4571 40.9223 29.1551 39.8171 30.6137C39.5512 30.9624 33.8032 36.9573 33.4714 37.2322C32.3613 38.1435 31.1634 38.6857 29.7752 38.8995C29.1384 38.9963 28.2821 38.9937 27.5965 38.8868C26.2693 38.6857 24.9689 38.0875 23.9418 37.2118C23.6491 36.9624 23.3685 36.6925 23.3685 36.662C23.3685 36.6212 39.2584 20.047 39.2877 20.0571C39.2999 20.0622 39.4146 20.1844 39.5414 20.3321Z" fill="#A71C39"/>
<path d="M77.2227 25.3732V37.5045H80.5405H83.8582V25.3732V13.2419H80.5405H77.2227V25.3732Z" fill="#A71C39"/>
<path d="M86.234 25.3732V37.5045H89.5723H92.9106V25.3732V13.2419H89.5723H86.234V25.3732Z" fill="#A71C39"/>
<path d="M54.2439 25.9141C51.8682 32.2462 49.9185 37.4488 49.9103 37.4687C49.9021 37.4885 51.2415 37.5045 53.3755 37.5045H56.8572L57.5002 35.635L58.1433 33.7656L62.3663 33.7736L66.5893 33.7855L67.2242 35.643L67.8591 37.5045H71.353C73.2741 37.5045 74.8469 37.4925 74.8428 37.4726C74.8428 37.4567 72.9013 32.2621 70.5338 25.93L66.2248 14.4152L62.395 14.4073L58.5652 14.3953L54.2439 25.9141ZM64.8936 28.762C64.8936 28.7819 63.759 28.7938 62.3745 28.7938C60.9901 28.7938 59.8555 28.7858 59.8555 28.7779C59.8555 28.758 62.3008 21.5269 62.3377 21.4355C62.3581 21.3877 64.8936 28.6586 64.8936 28.762Z" fill="#A71C39"/>
<path d="M119.195 14.6618C119.178 14.6738 119.166 15.6761 119.166 16.8892V19.0888L118.011 19.0967L116.852 19.1086L116.839 21.7815L116.831 24.4584H117.999H119.166V27.692C119.166 29.6251 119.182 31.1405 119.211 31.4627C119.326 32.8946 119.715 34.0918 120.366 35.0384C120.632 35.4242 121.312 36.0845 121.714 36.343C122.529 36.872 123.463 37.2062 124.716 37.409C125.052 37.4647 125.507 37.4806 127.227 37.4925L129.324 37.5124V34.764V32.0195L128.046 32.0076C126.588 31.9917 126.494 31.9718 126.191 31.6775C125.847 31.3473 125.863 31.5542 125.851 27.7875L125.838 24.4584H127.563H129.283V21.7736V19.0888H127.563H125.843V16.8614V14.634H122.533C120.71 14.634 119.207 14.6459 119.195 14.6618Z" fill="#A71C39"/>
<path d="M103.642 18.9336C99.972 19.3195 97.2113 21.2803 95.9661 24.3868C95.6548 25.1544 95.4623 25.9579 95.3435 26.9284C95.2902 27.3818 95.282 27.7239 95.2984 28.5551C95.3271 29.9552 95.4418 30.6632 95.8186 31.7769C96.7771 34.6168 99.0422 36.6573 102.061 37.405C103.155 37.6755 104.023 37.763 105.219 37.7312C106.841 37.6834 108.07 37.401 109.397 36.7726C111.642 35.7066 113.206 33.9526 113.903 31.7093C113.98 31.4587 114.046 31.228 114.046 31.1962C114.046 31.1485 113.563 31.1405 110.515 31.1405H106.98L106.857 31.3712C106.788 31.5025 106.608 31.7252 106.427 31.8962C105.932 32.3815 105.42 32.5724 104.625 32.5724C103.806 32.5724 103.245 32.3576 102.716 31.8405C102.471 31.6019 102.348 31.4428 102.237 31.2161C102.069 30.878 101.905 30.3132 101.86 29.8995L101.832 29.6291L108.094 29.6211L114.353 29.6092L114.382 29.4501C114.456 29.0921 114.468 27.4773 114.398 26.8767C114.071 23.8697 112.604 21.5468 110.163 20.1587C109.168 19.5939 108.033 19.2121 106.722 19.0052C106.313 18.9376 105.969 18.9177 105.096 18.9098C104.49 18.9018 103.835 18.9138 103.642 18.9336ZM105.752 24.0765C106.44 24.2555 107.107 24.7328 107.382 25.2419C107.558 25.576 107.644 25.8425 107.681 26.2084L107.709 26.4869H104.793C102.466 26.4869 101.881 26.4749 101.881 26.4352C101.881 26.3119 102.061 25.763 102.192 25.5044C102.598 24.6811 103.339 24.1561 104.318 24.0089C104.572 23.9691 105.51 24.0129 105.752 24.0765Z" fill="#A71C39"/>
<path d="M155.047 18.9495C152.016 19.3194 149.686 20.6996 148.232 22.9787C147.187 24.6254 146.683 26.8528 146.851 29.116C147.036 31.574 147.863 33.5151 149.395 35.0543C150.808 36.4743 152.598 37.3255 154.863 37.6516C155.568 37.7511 157.329 37.7511 158.017 37.6476C161.405 37.1465 164.083 35.1896 165.222 32.3815C165.337 32.0991 165.615 31.228 165.615 31.1524C165.615 31.1445 164.026 31.1405 162.084 31.1405H158.55L158.406 31.3871C158.214 31.7172 157.792 32.1269 157.476 32.286C157.108 32.473 156.665 32.5724 156.198 32.5724C155.4 32.5684 154.773 32.3377 154.273 31.8604C153.815 31.4229 153.499 30.695 153.425 29.9274L153.397 29.6291L159.66 29.6211L165.922 29.6092L165.959 29.3506C166.025 28.8654 166.008 27.1511 165.931 26.6062C165.636 24.5379 164.862 22.8952 163.551 21.5667C162.175 20.1666 160.409 19.3234 158.14 18.9853C157.55 18.8939 155.666 18.874 155.047 18.9495ZM157.014 24.0248C157.636 24.1203 158.144 24.3669 158.57 24.7765C158.967 25.1624 159.18 25.6317 159.238 26.2562L159.262 26.4869H156.354C153.602 26.4869 153.45 26.4829 153.45 26.4153C153.45 26.2482 153.634 25.7272 153.81 25.397C154.118 24.8163 154.634 24.3748 155.26 24.1561C155.723 23.993 156.465 23.9373 157.014 24.0248Z" fill="#A71C39"/>
<path d="M143.795 18.9734C141.862 19.1524 139.998 20.2263 138.63 21.9486L138.335 22.3185L138.327 20.7116L138.315 19.1086L135.009 19.0967L131.7 19.0888V28.2966V37.5045H135.018H138.335V33.2764C138.335 30.4405 138.352 28.933 138.381 28.6944C138.475 27.9347 138.729 27.3022 139.093 26.8965C139.47 26.4789 140.162 26.1249 140.912 25.9698C141.481 25.8505 142.087 25.8107 143.3 25.8107H144.439V22.3702V18.9297L144.287 18.9336C144.201 18.9376 143.98 18.9535 143.795 18.9734Z" fill="#A71C39"/>
</svg>
