<svg xmlns="http://www.w3.org/2000/svg" width="32.837" height="32.837" viewBox="0 0 32.837 32.837">
  <path id="add-image" d="M3.541,8.5A4.964,4.964,0,0,1,8.5,3.541H20.723a1.145,1.145,0,0,0,0-2.291H8.5A7.255,7.255,0,0,0,1.25,8.5V26.832A7.255,7.255,0,0,0,8.5,34.087H26.832a7.255,7.255,0,0,0,7.255-7.255V14.614a1.145,1.145,0,0,0-2.291,0v5.359q-.1-.083-.215-.157l-3.636-2.424a6.109,6.109,0,0,0-7.709.763L15.1,23.291a6.109,6.109,0,0,1-7.709.763L3.541,21.487ZM29.505,2.4a1.145,1.145,0,0,0-2.291,0V5.832H23.778a1.145,1.145,0,0,0,0,2.291h3.436v3.436a1.145,1.145,0,1,0,2.291,0V8.123h3.436a1.145,1.145,0,0,0,0-2.291H29.505ZM12.323,16.141A3.818,3.818,0,1,0,8.5,12.323,3.818,3.818,0,0,0,12.323,16.141Z" transform="translate(-1.25 -1.25)" fill="#e5e5e5" fill-rule="evenodd"/>
</svg>
