<svg xmlns="http://www.w3.org/2000/svg" width="55.823" height="38.138" viewBox="0 0 55.823 38.138">
  <g id="money_in_hands_icon" data-name="money in hands icon" transform="translate(-642.366 -824.009)">
    <g id="Group_1046" data-name="Group 1046" transform="translate(642.366 824.009)">
      <path id="Path_907" data-name="Path 907" d="M27.805,9.655c14.1,0,23.264-18.447,23.264-4.344A25.535,25.535,0,0,1,0,5.311C0-8.792,13.7,9.655,27.805,9.655Z" transform="translate(2.377 5.863)" fill="#a2547a" opacity="0.1"/>
      <ellipse id="Ellipse_179" data-name="Ellipse 179" cx="3.01" cy="2.736" rx="3.01" ry="2.736" transform="translate(16.966 0)" fill="#a2547a" opacity="0.1"/>
      <circle id="Ellipse_182" data-name="Ellipse 182" cx="0.821" cy="0.821" r="0.821" transform="translate(37.763 3.831)" fill="#a2547a" opacity="0.1"/>
      <ellipse id="Ellipse_183" data-name="Ellipse 183" cx="0.821" cy="1.095" rx="0.821" ry="1.095" transform="translate(14.229 5.473)" fill="#a2547a" opacity="0.1"/>
      <ellipse id="Ellipse_181" data-name="Ellipse 181" cx="3.01" cy="2.736" rx="3.01" ry="2.736" transform="translate(49.803 30.648)" fill="#a2547a" opacity="0.1"/>
      <ellipse id="Ellipse_180" data-name="Ellipse 180" cx="3.01" cy="2.736" rx="3.01" ry="2.736" transform="translate(0 31.195)" fill="#a2547a" opacity="0.1"/>
    </g>
    <g id="money_in_hands_icon-2" data-name="money in hands icon" transform="translate(657.975 833.409)">
      <path id="Path_930" data-name="Path 930" d="M23.6,8.81a3.093,3.093,0,0,0-2.225-.8,3.131,3.131,0,0,0-2.143,1l-3.3,3.619a3.222,3.222,0,0,0-2.758-1.559l-8.656.839c-2.266,0-2.7.746-3.213,2.955L0,20.3a4.1,4.1,0,0,0,4.1,4.1H9.187a10.27,10.27,0,0,0,7.659-3.435l6.983-7.834A3.105,3.105,0,0,0,23.6,8.8Zm-1.3,2.974-6.983,7.834A8.218,8.218,0,0,1,9.2,22.365H4.1a2.057,2.057,0,0,1-2.051-2.051l1.091-4.67a2.458,2.458,0,0,1,2.525-1.922l7.519-.586a1.17,1.17,0,0,1,.164,2.328l-5.291.759a1.025,1.025,0,0,0,.287,2.03l5.291-.759a3.226,3.226,0,0,0,2.574-2.112L20.753,10.4a1.014,1.014,0,0,1,.718-.338,1.1,1.1,0,0,1,.749.267,1.035,1.035,0,0,1,.072,1.456Z" transform="translate(0 4.332)" fill="#a2547a"/>
      <path id="Path_931" data-name="Path 931" d="M8.275,8.551H8.6A2.243,2.243,0,0,0,8.968,4.1l-2.805-.47a.534.534,0,0,1,.086-1.061H8.506a.858.858,0,0,1,.744.428.857.857,0,1,0,1.48-.864A2.579,2.579,0,0,0,8.506.845H8.275a.855.855,0,1,0-1.711,0H6.24A2.243,2.243,0,0,0,5.872,5.3l2.805.47a.534.534,0,0,1-.086,1.061H6.334A.858.858,0,0,1,5.59,6.4a.857.857,0,0,0-1.48.864A2.579,2.579,0,0,0,6.334,8.551h.231a.855.855,0,1,0,1.711,0Z" transform="translate(4.884 3.438)" fill="#a2547a"/>
      <path id="Ellipse_201" data-name="Ellipse 201" d="M8.553,1.711A6.842,6.842,0,1,0,15.4,8.553,6.85,6.85,0,0,0,8.553,1.711M8.553,0A8.553,8.553,0,1,1,0,8.553,8.553,8.553,0,0,1,8.553,0Z" transform="translate(3.749 0)" fill="#a2547a"/>
    </g>
  </g>
</svg>
