<svg xmlns="http://www.w3.org/2000/svg" width="102" height="72.956" viewBox="0 0 102 72.956">
  <g id="Bids_icon" data-name="Bids icon" transform="translate(-741 -359.931)">
    <g id="Group_885" data-name="Group 885" transform="translate(741.45 359.857)">
      <path id="Path_907" data-name="Path 907" d="M50.806,17.642c25.768,0,42.509-33.706,42.509-7.938A46.657,46.657,0,0,1,0,9.7C0-16.065,25.038,17.642,50.806,17.642Z" transform="translate(3.892 10.788)" fill="#a2547a" opacity="0.1"/>
      <ellipse id="Ellipse_179" data-name="Ellipse 179" cx="5.5" cy="5" rx="5.5" ry="5" transform="translate(30.55 0.074)" fill="#a2547a" opacity="0.1"/>
      <circle id="Ellipse_182" data-name="Ellipse 182" cx="1.5" cy="1.5" r="1.5" transform="translate(68.55 7.074)" fill="#a2547a" opacity="0.1"/>
      <ellipse id="Ellipse_183" data-name="Ellipse 183" cx="1.5" cy="2" rx="1.5" ry="2" transform="translate(25.55 10.074)" fill="#a2547a" opacity="0.1"/>
      <ellipse id="Ellipse_181" data-name="Ellipse 181" cx="5.5" cy="5" rx="5.5" ry="5" transform="translate(90.55 56.074)" fill="#a2547a" opacity="0.1"/>
      <ellipse id="Ellipse_180" data-name="Ellipse 180" cx="5.5" cy="5" rx="5.5" ry="5" transform="translate(-0.45 57.074)" fill="#a2547a" opacity="0.1"/>
    </g>
    <g id="bid" transform="translate(720.533 367.404)">
      <path id="Path_939" data-name="Path 939" d="M272.413,52.968v8.694a.959.959,0,1,0,1.918,0V52.968a.959.959,0,0,0-1.918,0Z" transform="translate(-204.267 -45.36)" fill="#a2547a"/>
      <path id="Path_940" data-name="Path 940" d="M314.865,63.277a1,1,0,0,0,.976,1.1h0c.072,0,1.775-.007,2.455-.019,2.48-.043,4.279-2.213,4.279-5.158,0-3.1-1.755-5.177-4.366-5.177h-2.389a.959.959,0,0,0-.959.961v.007h0Zm3.348-7.341c1.8,0,2.448,1.684,2.448,3.259,0,2.21-1.2,3.22-2.395,3.241-.336.006-.946.01-1.47.014,0-1-.01-5.477-.012-6.514Z" transform="translate(-241.292 -47.113)" fill="#a2547a"/>
      <path id="Path_941" data-name="Path 941" d="M194.111,52.009h-2.525a.959.959,0,0,0-.959.959v8.694a.959.959,0,0,0,.959.959h0s2.322-.01,2.962-.01a3.3,3.3,0,0,0,1.977-5.938,2.957,2.957,0,0,0-2.418-4.663Zm0,1.918a1.042,1.042,0,0,1,0,2.083l-.913,0h-.653V53.927Zm.441,6.766c-.367,0-1.288,0-2.008.006V57.932l.648,0h1.359a1.381,1.381,0,0,1,0,2.762Z" transform="translate(-132.937 -45.36)" fill="#a2547a"/>
      <path id="Path_942" data-name="Path 942" d="M93.547,0H91.591a.959.959,0,1,0,0,1.918h1.956a3.119,3.119,0,0,1,3.115,3.115V18.848a3.119,3.119,0,0,1-3.115,3.115H56.356a3.119,3.119,0,0,1-3.115-3.115V16a.959.959,0,0,0-1.918,0v2.849a5.038,5.038,0,0,0,5.033,5.033H68.824v1.865a2.634,2.634,0,0,0,2.631,2.631h.186v3.976H68.977a7.861,7.861,0,0,0-5.6,2.318L58.07,39.982H52.132a3.963,3.963,0,0,0-3.561-2.23H45.426a.959.959,0,0,0,0,1.918h3.145a2.043,2.043,0,0,1,2.041,2.041v7.029c0,.53.429-.959.959-.959s.959,1.488.959.959V41.9h5.937a.959.959,0,0,0,.678-.281l5.592-5.592a5.957,5.957,0,0,1,4.24-1.756h2.665v3.8h-3.6a.959.959,0,0,0,0,1.918h12a1.6,1.6,0,1,1,0,3.191H77.112a.959.959,0,1,0,0,1.918h2.4a1.6,1.6,0,1,1,0,3.191h-2.4a.959.959,0,1,0,0,1.918h1.869a1.6,1.6,0,0,1,0,3.191H77.112a.959.959,0,1,0,0,1.918h.675a1.6,1.6,0,1,1,0,3.191H64.78a6.54,6.54,0,0,1-4.655-1.928l-.587-.587a.959.959,0,0,0-.678-.281H52.53V48.739a.959.959,0,1,0-1.918,0V55.9a2.043,2.043,0,0,1-2.041,2.041H45.426a.959.959,0,1,0,0,1.918h3.145a3.963,3.963,0,0,0,3.561-2.23h6.332l.306.306a8.445,8.445,0,0,0,6.011,2.49h6.861v2A3.061,3.061,0,0,0,74.7,65.483h.5a3.061,3.061,0,0,0,3.058-3.058V60.393a3.509,3.509,0,0,0,2.4-5.5,3.508,3.508,0,0,0,.97-5.393,3.506,3.506,0,0,0,.531-5.108,3.512,3.512,0,0,0-2.116-6.315H78.261v-9.7h.186a2.634,2.634,0,0,0,2.631-2.631V23.882H93.547a5.038,5.038,0,0,0,5.033-5.033V5.033A5.038,5.038,0,0,0,93.547,0ZM75.2,63.564h-.5a1.141,1.141,0,0,1-1.14-1.14v-2h2.785v2A1.141,1.141,0,0,1,75.2,63.564Zm1.14-25.491H73.559v-9.7h2.785ZM79.16,25.746a.714.714,0,0,1-.713.713H71.455a.714.714,0,0,1-.713-.713V23.881h8.419v1.865Z" fill="#a2547a"/>
      <path id="Path_943" data-name="Path 943" d="M99.051,16.127c.53,0,.961.952.961.422V5.033a3.119,3.119,0,0,1,3.115-3.115l35.33-.009a3.351,3.351,0,0,0,.188-1.031c0-.53.53-.875,0-.875L103.127,0a5.038,5.038,0,0,0-5.033,5.033V16.549C98.094,17.078,98.521,16.127,99.051,16.127Z" transform="translate(-46.771 0)" fill="#a2547a"/>
      <g id="Group_1056" data-name="Group 1056" transform="translate(85.342 4.097)">
        <path id="Path_937" data-name="Path 937" d="M287.907,98.706h-1.3a2.844,2.844,0,0,1-2.741-2.039.963.963,0,0,1,1.844-.553.93.93,0,0,0,.9.667h1.3a1.138,1.138,0,0,0,0-2.277h-1.154a3.064,3.064,0,1,1,0-6.128h1.031a2.844,2.844,0,0,1,2.741,2.039.963.963,0,0,1-1.844.553.93.93,0,0,0-.9-.667h-1.031a1.138,1.138,0,1,0,0,2.277h1.154a3.064,3.064,0,0,1,0,6.128Z" transform="translate(-283.689 -86.16)" fill="#a2547a"/>
        <path id="Line_600" data-name="Line 600" d="M-6.537-3.359A.963.963,0,0,1-7.5-4.321V-6.537A.963.963,0,0,1-6.537-7.5a.963.963,0,0,1,.963.963v2.216A.963.963,0,0,1-6.537-3.359Z" transform="translate(10.178 7.5)" fill="#a2547a"/>
        <path id="Line_601" data-name="Line 601" d="M-6.537-3.359A.963.963,0,0,1-7.5-4.322V-6.537A.963.963,0,0,1-6.537-7.5a.963.963,0,0,1,.963.963v2.216A.963.963,0,0,1-6.537-3.359Z" transform="translate(10.178 18.121)" fill="#a2547a"/>
      </g>
    </g>
  </g>
</svg>
