<svg xmlns="http://www.w3.org/2000/svg" width="149.608" height="41.227" viewBox="0 0 149.608 41.227">
  <g id="allatre-01" transform="translate(-154.96 -291.322)">
    <g id="Group_1109" data-name="Group 1109" transform="translate(181.879 291.322)">
      <path id="Path_995" data-name="Path 995" d="M305.693,326.6h0a.587.587,0,0,1-.561-.414l-1.669-5.467a.585.585,0,0,0-.561-.414h-7.037a.585.585,0,0,0-.557.408l-1.756,5.483a.585.585,0,0,1-.557.408h0a4.636,4.636,0,0,1-4.335-6.28l7.672-20.222a.585.585,0,0,1,.547-.377h0a8.3,8.3,0,0,1,7.793,5.442l5.507,15.013A4.778,4.778,0,0,1,305.693,326.6Zm-4.855-11.763a.583.583,0,0,0,.555-.771q-.53-1.559-1.13-3.461c-.109-.343-.206-.654-.295-.932a.584.584,0,0,0-1.114,0q-.136.436-.307.971-.6,1.892-1.124,3.42a.583.583,0,0,0,.555.773Z" transform="translate(-288.356 -298.025)" fill="#821a4d"/>
      <path id="Path_996" data-name="Path 996" d="M423.185,320.043a5.149,5.149,0,0,1-4.165-1.564,5.626,5.626,0,0,1-1.32-3.751V293.386a1.338,1.338,0,0,1,1.112-1.32l4.183-.724a1.339,1.339,0,0,1,1.568,1.32v20.746a1.531,1.531,0,0,0,.244,1.037,1.315,1.315,0,0,0,.924.244,6.632,6.632,0,0,0,.886-.067.018.018,0,0,0,.01,0,1.343,1.343,0,0,1,1.513,1.124l.319,2.095a1.33,1.33,0,0,1-.856,1.457c-.387.137-.815.266-1.287.387A12.662,12.662,0,0,1,423.185,320.043Z" transform="translate(-391.599 -291.322)" fill="#821a4d"/>
      <path id="Path_997" data-name="Path 997" d="M488.485,320.043a5.149,5.149,0,0,1-4.165-1.564,5.626,5.626,0,0,1-1.32-3.751V293.386a1.338,1.338,0,0,1,1.112-1.32l4.183-.724a1.339,1.339,0,0,1,1.568,1.32v20.746a1.531,1.531,0,0,0,.244,1.037,1.315,1.315,0,0,0,.924.244,6.632,6.632,0,0,0,.886-.067.018.018,0,0,0,.01,0,1.343,1.343,0,0,1,1.513,1.124l.319,2.095a1.33,1.33,0,0,1-.856,1.457c-.387.137-.815.266-1.287.387A12.674,12.674,0,0,1,488.485,320.043Z" transform="translate(-443.722 -291.322)" fill="#821a4d"/>
      <path id="Path_998" data-name="Path 998" d="M558.41,352.575h0a4.678,4.678,0,0,1-.543-.654l0-.006a6.043,6.043,0,0,1-.848-1.33l0-.006a.588.588,0,0,0-.953-.133,9.86,9.86,0,0,1-1.088.94,5.761,5.761,0,0,1-3.59,1.055,6.711,6.711,0,0,1-5.919-2.771,12.411,12.411,0,0,1-1.923-7.22,10.791,10.791,0,0,1,2.789-7.606,9.444,9.444,0,0,1,7.277-3.025,23.817,23.817,0,0,1,4.391.424q2.231.418,3.087.644a.377.377,0,0,0,.046.01h0a.647.647,0,0,1,.541.638v8.99a16.761,16.761,0,0,0,.519,4.694,8.577,8.577,0,0,0,1.082,2.49l.02.034.2.28a5.513,5.513,0,0,0,.632.757h0Zm-6.034-5.352q.941,0,1.687-1.705a10.1,10.1,0,0,0,.745-4.062v-3.2a1.211,1.211,0,0,0-1.207-1.211h0a2.212,2.212,0,0,0-2.234,1.376,9.382,9.382,0,0,0-.593,3.656q0,1.414.113,2.619a5.238,5.238,0,0,0,.452,1.867A1.1,1.1,0,0,0,552.377,347.223Z" transform="translate(-492.045 -323.648)" fill="#821a4d"/>
      <path id="Path_999" data-name="Path 999" d="M665.033,332.34l-.918-3.584a.482.482,0,0,0-.032-.095v0a.605.605,0,0,0-.351-.3c-.022-.008-.048-.014-.073-.022a1.6,1.6,0,0,0-.517,0c-.085.022-.176.044-.266.067-.01,0-.022,0-.032.008-.226.05-.472.1-.735.145a7.173,7.173,0,0,1-1.2.1q-1.392-.015-1.394-1.32V319.8a.678.678,0,0,1,.68-.68h2.508a.679.679,0,0,0,.672-.571l.63-3.881a.68.68,0,0,0-.672-.789H660.2a.677.677,0,0,1-.68-.676v-3.7a.682.682,0,0,0-.827-.666l-1.865.414a5.009,5.009,0,0,0-3.866,4.062.681.681,0,0,1-.672.563H650.32a.68.68,0,0,0-.68.68v3.88a.678.678,0,0,0,.68.68h1.693a.678.678,0,0,1,.68.68v8.594q0,3.033,1.774,4.326a7.972,7.972,0,0,0,4.787,1.292,15.11,15.11,0,0,0,3.412-.329c.684-.165,1.32-.337,1.913-.523A.68.68,0,0,0,665.033,332.34Z" transform="translate(-576.735 -305.292)" fill="#821a4d"/>
      <path id="Path_1000" data-name="Path 1000" d="M743,331.5h-.036a6.343,6.343,0,0,0-3.324.86,6.224,6.224,0,0,0-1.368,1.057.669.669,0,0,1-1.027-.081q-.027-.048-.054-.091a13.142,13.142,0,0,0-1.255-1.748c-.048-.05-.073-.081-.073-.081l-5.695,1.818.341.341c.022.026.044.05.067.081.125.172.3.41.537.71a8.75,8.75,0,0,1,1,2.426,17.435,17.435,0,0,1,.5,4.7v9.733a.671.671,0,0,0,.672.672h5.515a.67.67,0,0,0,.672-.672v-9.545a4.092,4.092,0,0,1,.472-2.1,3.1,3.1,0,0,1,1.076-1.152,2.2,2.2,0,0,1,1.053-.347,3.244,3.244,0,0,1,1.32.27.664.664,0,0,0,.928-.414l.928-3.408A2.387,2.387,0,0,0,743,331.5Z" transform="translate(-641.014 -323.328)" fill="#821a4d"/>
      <path id="Path_1001" data-name="Path 1001" d="M826.524,345.931a.591.591,0,0,0-.654-.321,7.25,7.25,0,0,0-.753.262q-.905.3-2.151.6a9.842,9.842,0,0,1-2.319.3,2.677,2.677,0,0,1-1.919-.626,3.365,3.365,0,0,1-.343-.365.623.623,0,0,1,.418-.995,13.323,13.323,0,0,0,6.25-2.351,6.1,6.1,0,0,0,2.779-5.051,6.243,6.243,0,0,0-1.667-4.439q-1.668-1.783-5.475-1.782a10.548,10.548,0,0,0-5.156,1.273,9.171,9.171,0,0,0-3.675,3.713,12.3,12.3,0,0,0-1.35,6.024,13.189,13.189,0,0,0,.932,5.117,7.311,7.311,0,0,0,2.981,3.489,9.976,9.976,0,0,0,5.267,1.251,15.659,15.659,0,0,0,3.866-.45,23.132,23.132,0,0,0,2.845-.886l.886-.359.464-.208-1.2-4.147A.512.512,0,0,1,826.524,345.931Zm-8.863-6.484c.048-.266.107-.555.186-.87a4.163,4.163,0,0,1,.771-1.647,1.586,1.586,0,0,1,1.273-.634A1.11,1.11,0,0,1,821,337.541a2.663,2.663,0,0,1-.856,1.705,3.2,3.2,0,0,1-1.742.926A.631.631,0,0,1,817.662,339.448Z" transform="translate(-705.142 -323.129)" fill="#821a4d"/>
    </g>
    <g id="Group_1110" data-name="Group 1110" transform="translate(154.96 298.83)">
      <path id="Path_1002" data-name="Path 1002" d="M204.85,328.53s3.895,4.49,3.856,8.039S205.058,342,205.058,342s-3.667-1.764-3.814-5.311,3.606-8.154,3.606-8.154" transform="translate(-191.901 -328.53)" fill="#9b4871" fill-rule="evenodd"/>
      <path id="Path_1003" data-name="Path 1003" d="M207.367,431.264c-.032-.018-.069-.036-.107-.054l.1.026Z" transform="translate(-196.706 -410.49)" fill="#89b129" fill-rule="evenodd"/>
      <path id="Path_1004" data-name="Path 1004" d="M166.638,396.94v.248l-1.023-.274-.1-.026a8.244,8.244,0,0,0-2.557-.478,5.341,5.341,0,0,1-2.853-.626c-3.12-1.7-5.146-7.285-5.146-7.285s5.852-1.031,8.879.823,2.779,5.917,2.779,5.917l.014,1.207v0Z" transform="translate(-154.96 -376.17)" fill="#821a4d" fill-rule="evenodd"/>
      <path id="Path_1005" data-name="Path 1005" d="M224.85,396.52v.248l1.023-.274.1-.026a8.244,8.244,0,0,1,2.557-.478,5.341,5.341,0,0,0,2.853-.626c3.12-1.7,5.146-7.285,5.146-7.285s-5.852-1.031-8.879.823-2.779,5.917-2.779,5.917l-.014,1.207v0Z" transform="translate(-210.747 -375.834)" fill="#821a4d" fill-rule="evenodd"/>
    </g>
    <g id="Group_1111" data-name="Group 1111" transform="translate(160.036 327.815)">
      <path id="Path_1006" data-name="Path 1006" d="M356.74,461.49h.6l.478,2.485c.088.49.178.979.266,1.472h.027c.1-.49.212-.982.32-1.472l.632-2.485h.526l.632,2.485c.109.484.221.979.329,1.472h.027c.088-.493.169-.985.257-1.472l.478-2.485h.559l-.943,4.561h-.7l-.689-2.741c-.079-.357-.151-.686-.221-1.04h-.027c-.07.351-.151.683-.23,1.04l-.677,2.741H357.7Z" transform="translate(-356.74 -461.402)" fill="#821a4d"/>
      <path id="Path_1007" data-name="Path 1007" d="M387.15,461.49h.58v1.91h2.122v-1.91h.58v4.561h-.58v-2.146H387.73v2.146h-.58Z" transform="translate(-377.958 -461.402)" fill="#821a4d"/>
      <path id="Path_1008" data-name="Path 1008" d="M412.93,461.49h2.63v.49H413.51v1.43h1.729v.49H413.51v1.659h2.119v.49h-2.7Z" transform="translate(-395.946 -461.402)" fill="#821a4d"/>
      <path id="Path_1009" data-name="Path 1009" d="M435.84,461.49h1.43c.928,0,1.6.333,1.6,1.285,0,.91-.668,1.351-1.6,1.351h-.849v1.928h-.58Zm1.345,2.161c.71,0,1.1-.287,1.1-.88s-.39-.813-1.1-.813h-.765v1.693Zm-.03.314.453-.3,1.39,2.388h-.659Z" transform="translate(-411.932 -461.402)" fill="#821a4d"/>
      <path id="Path_1010" data-name="Path 1010" d="M459.71,461.49h2.63v.49H460.29v1.43h1.729v.49H460.29v1.659h2.119v.49h-2.7Z" transform="translate(-428.587 -461.402)" fill="#821a4d"/>
      <path id="Path_1011" data-name="Path 1011" d="M496.91,465.256l.348-.4a1.782,1.782,0,0,0,1.257.565c.6,0,.952-.3.952-.741,0-.465-.33-.614-.762-.8l-.656-.29a1.222,1.222,0,0,1,.511-2.388,1.875,1.875,0,0,1,1.342.565l-.308.372a1.461,1.461,0,0,0-1.037-.429c-.511,0-.849.257-.849.665,0,.438.4.6.756.756l.65.281a1.268,1.268,0,0,1,.94,1.221,1.381,1.381,0,0,1-1.554,1.3A2.167,2.167,0,0,1,496.91,465.256Z" transform="translate(-454.543 -461.2)" fill="#821a4d"/>
      <path id="Path_1012" data-name="Path 1012" d="M521.08,461.49h.58v1.91h2.122v-1.91h.58v4.561h-.58v-2.146H521.66v2.146h-.58Z" transform="translate(-471.408 -461.402)" fill="#821a4d"/>
      <path id="Path_1013" data-name="Path 1013" d="M545.98,463.558c0-1.46.8-2.348,1.95-2.348s1.949.889,1.949,2.348-.8,2.382-1.949,2.382S545.98,465.018,545.98,463.558Zm3.3,0c0-1.136-.535-1.838-1.351-1.838s-1.351.7-1.351,1.838.535,1.871,1.351,1.871S549.281,464.7,549.281,463.558Z" transform="translate(-488.781 -461.207)" fill="#821a4d"/>
      <path id="Path_1014" data-name="Path 1014" d="M572.92,461.49h1.3c1.022,0,1.711.345,1.711,1.342,0,.961-.686,1.409-1.684,1.409h-.75v1.81h-.58Zm1.257,2.282c.8,0,1.179-.29,1.179-.937s-.405-.874-1.206-.874h-.65v1.81Z" transform="translate(-507.579 -461.402)" fill="#821a4d"/>
      <path id="Path_1015" data-name="Path 1015" d="M596.72,461.49h1.3c1.022,0,1.711.345,1.711,1.342,0,.961-.686,1.409-1.684,1.409h-.75v1.81h-.58Zm1.257,2.282c.8,0,1.179-.29,1.179-.937s-.405-.874-1.206-.874h-.65v1.81Z" transform="translate(-524.185 -461.402)" fill="#821a4d"/>
      <path id="Path_1016" data-name="Path 1016" d="M620.53,461.49h.58v4.561h-.58Z" transform="translate(-540.798 -461.402)" fill="#821a4d"/>
      <path id="Path_1017" data-name="Path 1017" d="M637.37,461.49h.6l1.65,2.868.493.943h.027c-.03-.459-.073-.973-.073-1.451V461.49h.55v4.561h-.6l-1.651-2.871-.493-.943h-.027c.03.463.076.949.076,1.424v2.388h-.55V461.49Z" transform="translate(-552.548 -461.402)" fill="#821a4d"/>
      <path id="Path_1018" data-name="Path 1018" d="M662.16,463.587a2.117,2.117,0,0,1,2.095-2.367,1.77,1.77,0,0,1,1.315.562l-.317.378a1.284,1.284,0,0,0-.982-.429c-.919,0-1.508.707-1.508,1.844s.541,1.865,1.514,1.865a1.244,1.244,0,0,0,.822-.269v-1.188h-.967V463.5h1.5v1.916a1.945,1.945,0,0,1-1.406.529A2.085,2.085,0,0,1,662.16,463.587Z" transform="translate(-569.845 -461.214)" fill="#821a4d"/>
      <path id="Path_1019" data-name="Path 1019" d="M703.4,461.49h1.354c.928,0,1.569.314,1.569,1.118a1,1,0,0,1-.668.991v.027a1.055,1.055,0,0,1,.928,1.091c0,.895-.71,1.336-1.726,1.336H703.4Zm1.254,1.94c.777,0,1.1-.287,1.1-.75,0-.532-.366-.731-1.07-.731h-.7v1.481Zm.121,2.161c.78,0,1.239-.281,1.239-.895,0-.562-.441-.819-1.239-.819h-.795v1.714Z" transform="translate(-598.62 -461.402)" fill="#821a4d"/>
      <path id="Path_1020" data-name="Path 1020" d="M727.71,461.49h2.63v.49H728.29v1.43h1.729v.49H728.29v1.659h2.119v.49h-2.7Z" transform="translate(-615.583 -461.402)" fill="#821a4d"/>
      <path id="Path_1021" data-name="Path 1021" d="M749.74,463.587a2.117,2.117,0,0,1,2.095-2.367,1.77,1.77,0,0,1,1.315.562l-.317.378a1.284,1.284,0,0,0-.982-.429c-.919,0-1.508.707-1.508,1.844s.541,1.865,1.514,1.865a1.243,1.243,0,0,0,.822-.269v-1.188h-.967V463.5h1.5v1.916a1.944,1.944,0,0,1-1.406.529A2.085,2.085,0,0,1,749.74,463.587Z" transform="translate(-630.954 -461.214)" fill="#821a4d"/>
      <path id="Path_1022" data-name="Path 1022" d="M775.59,461.49h.58v4.561h-.58Z" transform="translate(-648.991 -461.402)" fill="#821a4d"/>
      <path id="Path_1023" data-name="Path 1023" d="M792.43,461.49h.6l1.65,2.868.493.943h.027c-.03-.459-.073-.973-.073-1.451V461.49h.55v4.561h-.6l-1.65-2.871-.493-.943h-.027c.03.463.075.949.075,1.424v2.388h-.55V461.49Z" transform="translate(-660.741 -461.402)" fill="#821a4d"/>
      <path id="Path_1024" data-name="Path 1024" d="M817,465.256l.348-.4a1.777,1.777,0,0,0,1.257.565c.6,0,.955-.3.955-.741,0-.465-.33-.614-.762-.8l-.656-.29a1.222,1.222,0,0,1,.511-2.388,1.875,1.875,0,0,1,1.342.565l-.309.372a1.461,1.461,0,0,0-1.037-.429c-.511,0-.849.257-.849.665,0,.438.4.6.756.756l.65.281a1.268,1.268,0,0,1,.94,1.221,1.381,1.381,0,0,1-1.554,1.3A2.164,2.164,0,0,1,817,465.256Z" transform="translate(-677.884 -461.2)" fill="#821a4d"/>
    </g>
  </g>
</svg>
