<svg xmlns="http://www.w3.org/2000/svg" width="157.6" height="39.232" viewBox="0 0 157.6 39.232">
  <g id="Group_734" data-name="Group 734" transform="translate(-167 -112.768)">
    <g id="Group_679" data-name="Group 679" transform="translate(218.071 112.768)">
      <path id="Path_842" data-name="Path 842" d="M252.531,61.7a6.459,6.459,0,0,1,2.722.505,4.874,4.874,0,0,1,1.936,1.656,10.746,10.746,0,0,1,1.347,2.5,37.493,37.493,0,0,1,1.207,3.592c.084.253.309,1.123.7,2.554.393,1.459.73,2.666,1.01,3.648s.645,2.133,1.066,3.452.786,2.357,1.122,3.143a5.173,5.173,0,0,0,1.01,1.487q.673.674.673,1.01c0,.393-.281.73-.814,1.01a5.892,5.892,0,0,1-2.582.421q-3.157,0-4.125-3.957c-.365-1.375-.645-2.357-.786-3-1.487-.084-2.947-.112-4.406-.112q-1.221,0-3.7.084c-.617,1.88-1.038,3.115-1.319,3.732a6.977,6.977,0,0,1-1.628,2.5,3.883,3.883,0,0,1-2.582.758,4.394,4.394,0,0,1-1.572-.253.808.808,0,0,1-.617-.87,1.245,1.245,0,0,1,.533-.926c.225-.225.393-.421.589-.617q.253-.295.421-.505a4.484,4.484,0,0,0,.365-.589c.14-.281.225-.477.281-.589.056-.14.168-.421.365-.842a10.094,10.094,0,0,0,.421-1.01q.421-.968,2.694-7.661c1.515-4.434,2.75-7.773,3.788-10.018A1.8,1.8,0,0,1,252.531,61.7Zm.477,4.967c-.225.674-1.207,3.9-3,9.625h2.638c1.572,0,2.75,0,3.564-.028l-.168-.814c-1.179-4.715-2.077-7.661-2.694-8.784Q253.05,66.372,253.008,66.667Z" transform="translate(-241.191 -61.391)" fill="#fff"/>
      <path id="Path_843" data-name="Path 843" d="M336.1,61.47c0-.589.87-.87,2.638-.87a3,3,0,0,1,1.824.533,1.9,1.9,0,0,1,.7,1.628v7.072c0,.112,0,1.179-.028,3.2s-.028,3.957-.056,5.865c0,1.88-.028,2.862-.028,2.947.084.954.449,1.459,1.094,1.459a1.585,1.585,0,0,0,.73-.2,1.529,1.529,0,0,1,.589-.2.583.583,0,0,1,.337.14.453.453,0,0,1,.168.365,2.35,2.35,0,0,1-.926,1.628,4.221,4.221,0,0,1-3,.87,3.8,3.8,0,0,1-2.5-.786,2.571,2.571,0,0,1-.982-2.1V68.85c0-1.431-.056-2.722-.168-3.845s-.2-1.992-.309-2.554C336.128,61.863,336.1,61.526,336.1,61.47Z" transform="translate(-309.466 -60.6)" fill="#fff"/>
      <path id="Path_844" data-name="Path 844" d="M371.6,61.47c0-.589.87-.87,2.638-.87a3,3,0,0,1,1.824.533,1.9,1.9,0,0,1,.7,1.628v7.072c0,.112,0,1.179-.028,3.2s-.028,3.957-.056,5.865c0,1.88-.028,2.862-.028,2.947.084.954.449,1.459,1.094,1.459a1.585,1.585,0,0,0,.73-.2,1.529,1.529,0,0,1,.589-.2.583.583,0,0,1,.337.14.453.453,0,0,1,.168.365,2.35,2.35,0,0,1-.926,1.628,4.221,4.221,0,0,1-3,.87,3.8,3.8,0,0,1-2.5-.786,2.571,2.571,0,0,1-.982-2.1V68.85c0-1.431-.056-2.722-.168-3.845s-.2-1.992-.309-2.554C371.656,61.863,371.6,61.526,371.6,61.47Z" transform="translate(-335.004 -60.6)" fill="#fff"/>
      <path id="Path_845" data-name="Path 845" d="M410.574,103.006a4.54,4.54,0,0,1-3.311-1.207A4.744,4.744,0,0,1,406,98.207a5.708,5.708,0,0,1,2.554-4.967,11.3,11.3,0,0,1,6.426-1.88c0-.617,0-1.094-.028-1.459a9.909,9.909,0,0,0-.168-1.179,2.123,2.123,0,0,0-.421-.982,2.094,2.094,0,0,0-.786-.561,3.281,3.281,0,0,0-1.263-.225,2.829,2.829,0,0,0-1.543.421,3.264,3.264,0,0,0-1.01.926,8,8,0,0,1-.7.926,1.007,1.007,0,0,1-.7.421q-.505,0-.758-.674a4.556,4.556,0,0,1-.253-1.6c0-1.964,1.88-2.975,5.613-2.975,4.434,0,6.623,1.684,6.623,5.051v4.574c0,.14,0,.617-.028,1.4s-.028,1.515-.056,2.217c0,.7-.028,1.066-.028,1.151.084.982.421,1.487,1.094,1.487a1.67,1.67,0,0,0,.7-.225,1.75,1.75,0,0,1,.645-.225.485.485,0,0,1,.337.168.494.494,0,0,1,.168.365,2.35,2.35,0,0,1-.926,1.628,4.363,4.363,0,0,1-3,.842,3.253,3.253,0,0,1-3.283-1.74A6.035,6.035,0,0,1,410.574,103.006Zm4.434-4.939V93.829a5.777,5.777,0,0,0-3.339.926,3.486,3.486,0,0,0-1.347,3.087A1.845,1.845,0,0,0,411,99.357a2.2,2.2,0,0,0,1.4.533,2.5,2.5,0,0,0,1.628-.645A3.508,3.508,0,0,0,415.008,98.067Z" transform="translate(-359.75 -77.721)" fill="#fff"/>
      <path id="Path_846" data-name="Path 846" d="M472.256,70.018l4.658-.112a1.428,1.428,0,0,1,1.094.281c.2.225.2.589.028,1.094a1.971,1.971,0,0,1-1.487,1.459,23.737,23.737,0,0,1-4.35.225c-.056,2.919-.084,4.939-.084,6.033a27.9,27.9,0,0,0,.225,4.069,3,3,0,0,0,.645,1.684,2.011,2.011,0,0,0,1.375.393,4,4,0,0,0,2.189-.673c.954-.561,1.459-.309,1.6.73a2.519,2.519,0,0,1-.589,2.189c-.982.954-2.638,1.319-4.967,1.151a5.756,5.756,0,0,1-2.975-.87A4.661,4.661,0,0,1,468.1,85a23.426,23.426,0,0,1-.505-5.584c0-.87.028-2.161.084-3.845a4.5,4.5,0,0,0-.225-1.824,1.82,1.82,0,0,0-1.066-.954,1.742,1.742,0,0,1-.9-.645,1.691,1.691,0,0,1,.028-1.123c.14-.645.449-.982.87-.982a1.941,1.941,0,0,0,1.066-.225q.295-.21.253-1.01c-.056-1.964-.084-3.2-.112-3.788-.028-.477.084-.73.365-.814a7.063,7.063,0,0,1,2.161-.309,1.883,1.883,0,0,1,1.74.758,5.651,5.651,0,0,1,.449,2.722C472.284,68.5,472.284,69.372,472.256,70.018Z" transform="translate(-402.489 -62.974)" fill="#fff"/>
      <path id="Path_847" data-name="Path 847" d="M524.392,86.889a5.266,5.266,0,0,1,4.434-2.189q1.936,0,1.936,1.768a4.289,4.289,0,0,0,.028.505v.561c0,.14-.028.309-.028.533a1.172,1.172,0,0,1-.084.505c-.056.14-.112.253-.168.393a.5.5,0,0,1-.253.281.777.777,0,0,1-.365.084,1.583,1.583,0,0,1-.954-.505,2.279,2.279,0,0,0-1.6-.505,2.469,2.469,0,0,0-2.357,1.572,8.38,8.38,0,0,0-.73,3.536c0,.477.028,1.712.112,3.76s.112,3.115.112,3.255a2.449,2.449,0,0,0,.253,1.038,2.265,2.265,0,0,1,.253.758c0,.253-.281.477-.814.7a5.037,5.037,0,0,1-1.74.309,3.321,3.321,0,0,1-1.824-.561,2.185,2.185,0,0,1-.842-1.964c0-.589,0-1.908.028-4.013,0-2.077.028-3.2.028-3.339,0-1.431-.056-2.722-.14-3.845a22.575,22.575,0,0,0-.309-2.554c-.112-.589-.168-.9-.168-.982,0-.589.87-.87,2.61-.87C523.325,85.093,524.167,85.682,524.392,86.889Z" transform="translate(-441.183 -77.937)" fill="#fff"/>
      <path id="Path_848" data-name="Path 848" d="M576.773,100.355a7.49,7.49,0,0,0,1.936-.224,6.673,6.673,0,0,0,1.852-.982.642.642,0,0,1,.814-.056,1.516,1.516,0,0,1,.421,1.066,2.549,2.549,0,0,1-.14,1.319,2.383,2.383,0,0,1-.842.842,9.865,9.865,0,0,1-5.023,1.122c-2.722,0-4.8-.7-6.23-2.133s-2.161-3.845-2.161-7.3a10.765,10.765,0,0,1,2.049-6.96,7.407,7.407,0,0,1,6.09-2.554c2.441,0,4.209.561,5.248,1.684a5.982,5.982,0,0,1,1.6,4.294,5.2,5.2,0,0,1-2.5,4.715c-1.656,1.01-4.181,1.4-7.6,1.151a5.145,5.145,0,0,0,1.459,3.031A4.2,4.2,0,0,0,576.773,100.355Zm-4.658-6.735v.449c2.189.028,3.732-.253,4.63-.87a3.049,3.049,0,0,0,1.347-2.722,3.737,3.737,0,0,0-.7-2.357,2.408,2.408,0,0,0-2.077-.926C573.181,87.194,572.115,89.327,572.115,93.62Z" transform="translate(-475.857 -77.793)" fill="#fff"/>
    </g>
    <g id="Group_680" data-name="Group 680" transform="translate(171.799 147.117)">
      <path id="Path_849" data-name="Path 849" d="M76.609,187.871c-.084,0-.168,0-.2-.028-.056-.028-.084-.056-.084-.112s-.028-.112-.028-.168v-4.153a.356.356,0,0,1,.028-.168c0-.056.056-.084.084-.112a.416.416,0,0,1,.2-.028c.084,0,.168,0,.2.028.056.028.084.056.084.112s.028.112.028.168v3.873h2.3a.21.21,0,0,1,.14.028.15.15,0,0,1,.112.084c.028.028.028.112.028.2s0,.14-.028.168q-.042.084-.084.084a1.215,1.215,0,0,1-.14.028Z" transform="translate(-76.3 -183.072)" fill="#fff"/>
      <path id="Path_850" data-name="Path 850" d="M113.257,187.855a2.115,2.115,0,0,1-.926-.2,2.751,2.751,0,0,1-.758-.505,2.243,2.243,0,0,1-.505-.758,2.472,2.472,0,0,1-.168-.926,2.732,2.732,0,0,1,.168-.954,2.1,2.1,0,0,1,.505-.786,2.712,2.712,0,0,1,.73-.533,1.917,1.917,0,0,1,.9-.2,2.033,2.033,0,0,1,.926.2,2.328,2.328,0,0,1,.758.533,2.1,2.1,0,0,1,.505.786,2.622,2.622,0,0,1,.168.954,2.472,2.472,0,0,1-.168.926,2.509,2.509,0,0,1-1.235,1.319A3.163,3.163,0,0,1,113.257,187.855Zm-.028-.617a1.929,1.929,0,0,0,.674-.14,1.466,1.466,0,0,0,.533-.393,1.6,1.6,0,0,0,.365-.589,1.824,1.824,0,0,0,0-1.4,1.621,1.621,0,0,0-.365-.561,1.746,1.746,0,0,0-.533-.393,1.555,1.555,0,0,0-1.291,0,1.466,1.466,0,0,0-.533.393,1.754,1.754,0,0,0-.365.561,1.824,1.824,0,0,0,0,1.4,1.621,1.621,0,0,0,.365.561,2.376,2.376,0,0,0,.533.393A1.008,1.008,0,0,0,113.229,187.237Z" transform="translate(-101.19 -183)" fill="#fff"/>
      <path id="Path_851" data-name="Path 851" d="M152.109,187.871c-.084,0-.168,0-.2-.028-.056-.028-.084-.056-.084-.112s-.028-.112-.028-.168v-4.153a.356.356,0,0,1,.028-.168.387.387,0,0,1,.084-.112.416.416,0,0,1,.2-.028h1.515a1.51,1.51,0,0,1,.617.112,1.343,1.343,0,0,1,.477.281,1.083,1.083,0,0,1,.309.477,1.7,1.7,0,0,1,.112.674,1.589,1.589,0,0,1-.084.505,2.487,2.487,0,0,1-.225.477,1.223,1.223,0,0,1-.393.365,1.037,1.037,0,0,1-.589.168h-1.459v1.375a.356.356,0,0,1-.028.168.388.388,0,0,1-.084.112C152.277,187.871,152.221,187.871,152.109,187.871Zm.337-2.3h1.347a.83.83,0,0,0,.281-.056.663.663,0,0,0,.253-.168.582.582,0,0,0,.168-.281,1.7,1.7,0,0,0,.056-.421.961.961,0,0,0-.112-.505.658.658,0,0,0-.309-.309.961.961,0,0,0-.505-.112h-1.179Zm2.61,2.245a.286.286,0,0,1-.253.056.526.526,0,0,1-.2-.168l-1.094-1.74.674-.112.954,1.515a.373.373,0,0,1,.084.2.253.253,0,0,1-.028.14C155.168,187.73,155.111,187.758,155.055,187.815Z" transform="translate(-130.613 -183.072)" fill="#fff"/>
      <path id="Path_852" data-name="Path 852" d="M189.309,187.871c-.084,0-.168,0-.2-.028-.056-.028-.084-.056-.084-.112s-.028-.112-.028-.168v-4.153a.343.343,0,0,1,.084-.253c.056-.056.14-.056.253-.056h2.75a.356.356,0,0,1,.168.028c.056,0,.084.056.112.084a.416.416,0,0,1,.028.2c0,.084,0,.168-.028.2s-.056.084-.112.084-.112.028-.168.028h-2.47v1.4h1.712a.356.356,0,0,1,.168.028c.056,0,.084.028.112.084a.7.7,0,0,1,0,.393c-.028.056-.056.056-.112.084-.056,0-.112.028-.168.028h-1.684v1.543h2.47a.356.356,0,0,1,.168.028c.056,0,.084.056.112.084a.416.416,0,0,1,.028.2c0,.084,0,.168-.028.2-.028.056-.056.084-.112.084s-.112.028-.168.028h-2.806Z" transform="translate(-157.373 -183.072)" fill="#fff"/>
      <path id="Path_853" data-name="Path 853" d="M226.309,187.871a.416.416,0,0,1-.2-.028c-.056-.028-.084-.056-.084-.112a.356.356,0,0,1-.028-.168v-4.153a.356.356,0,0,1,.028-.168.387.387,0,0,1,.084-.112.416.416,0,0,1,.2-.028h.168c.028,0,.084.028.112.028.028.028.056.028.084.084l1.8,2.582h-.224l1.8-2.61c.028-.028.056-.056.084-.056s.056-.028.112-.028h.14a.416.416,0,0,1,.2.028c.056.028.084.056.084.112a.356.356,0,0,1,.028.168v4.153a.21.21,0,0,1-.028.14.388.388,0,0,1-.084.112.7.7,0,0,1-.393,0c-.056-.028-.084-.056-.084-.112a.356.356,0,0,1-.028-.168V184.11l-1.459,2.161c0,.028-.028.028-.056.056s-.056.028-.084.056a.21.21,0,0,1-.14.028c-.056,0-.084,0-.112-.028s-.056-.028-.084-.056-.056-.056-.056-.084l-1.459-2.133v3.452a.21.21,0,0,1-.028.14.388.388,0,0,1-.084.112A.237.237,0,0,1,226.309,187.871Z" transform="translate(-183.99 -183.072)" fill="#fff"/>
      <path id="Path_854" data-name="Path 854" d="M296.309,187.871c-.084,0-.168,0-.2-.028-.056-.028-.084-.056-.084-.112s-.028-.112-.028-.168v-4.153a.356.356,0,0,1,.028-.168.388.388,0,0,1,.084-.112c.028-.028.112-.028.2-.028s.168,0,.2.028c.056.028.084.056.084.112s.028.112.028.168v4.153a.356.356,0,0,1-.028.168c0,.056-.056.084-.084.112S296.393,187.871,296.309,187.871Z" transform="translate(-234.346 -183.072)" fill="#fff"/>
      <path id="Path_855" data-name="Path 855" d="M323.609,187.871a.416.416,0,0,1-.2-.028c-.056-.028-.084-.056-.084-.112s-.028-.112-.028-.168v-4.153a.356.356,0,0,1,.028-.168.387.387,0,0,1,.084-.112.416.416,0,0,1,.2-.028H325.1a1.3,1.3,0,0,1,.589.112,1.083,1.083,0,0,1,.477.309,1.844,1.844,0,0,1,.337.477,2.077,2.077,0,0,1,0,1.347,1.467,1.467,0,0,1-.337.477,1.736,1.736,0,0,1-.477.309,2.189,2.189,0,0,1-.617.112h-1.179v1.375a.356.356,0,0,1-.028.168.387.387,0,0,1-.084.112C323.777,187.871,323.721,187.871,323.609,187.871Zm.337-2.3h1.179a.86.86,0,0,0,.477-.112.658.658,0,0,0,.309-.309,1.193,1.193,0,0,0,0-1.01.658.658,0,0,0-.309-.309.961.961,0,0,0-.505-.112h-1.179v1.852Z" transform="translate(-253.985 -183.072)" fill="#fff"/>
      <path id="Path_856" data-name="Path 856" d="M360.911,187.955a2.472,2.472,0,0,1-.477-.056,1.324,1.324,0,0,1-.421-.168c-.112-.084-.224-.14-.337-.225a1.815,1.815,0,0,1-.224-.253.434.434,0,0,1-.084-.168c-.028-.056,0-.084,0-.14a.331.331,0,0,1,.14-.14.373.373,0,0,1,.2-.084.214.214,0,0,1,.14.056c.056.028.084.084.14.168a.811.811,0,0,0,.421.337,1.069,1.069,0,0,0,.477.112,1.809,1.809,0,0,0,.561-.084.951.951,0,0,0,.393-.253.689.689,0,0,0,.14-.421.517.517,0,0,0-.112-.365.8.8,0,0,0-.281-.253,1.463,1.463,0,0,0-.421-.168c-.14-.056-.309-.112-.477-.168a3.148,3.148,0,0,1-.365-.14l-.337-.168a.8.8,0,0,1-.281-.253,1.158,1.158,0,0,1-.2-.309,1.022,1.022,0,0,1-.056-.421,1.119,1.119,0,0,1,.2-.674,1.132,1.132,0,0,1,.505-.449,1.671,1.671,0,0,1,.758-.168,2.471,2.471,0,0,1,.477.056,1.1,1.1,0,0,1,.365.14,2.459,2.459,0,0,1,.281.168.476.476,0,0,1,.168.168.409.409,0,0,1,.14.224.335.335,0,0,1-.112.225.5.5,0,0,1-.224.14c-.084.028-.14-.028-.224-.084a.713.713,0,0,0-.281-.225,1.932,1.932,0,0,0-.281-.112,1.366,1.366,0,0,0-.337-.028,1.41,1.41,0,0,0-.337.056.543.543,0,0,0-.253.14.437.437,0,0,0-.168.225.83.83,0,0,0-.056.281.383.383,0,0,0,.112.309.662.662,0,0,0,.253.225c.112.056.225.112.365.168s.281.084.421.14c.168.056.337.112.477.168a2.771,2.771,0,0,1,.421.253,1.071,1.071,0,0,1,.309.393,1.182,1.182,0,0,1,.112.561,1.3,1.3,0,0,1-.14.589,1.321,1.321,0,0,1-.365.421,1.861,1.861,0,0,1-.533.253A4.109,4.109,0,0,0,360.911,187.955Z" transform="translate(-279.923 -183.072)" fill="#fff"/>
      <path id="Path_857" data-name="Path 857" d="M397.436,187.9a1.832,1.832,0,0,1-.814-.168,1.673,1.673,0,0,1-.617-.449,1.855,1.855,0,0,1-.365-.7,2.972,2.972,0,0,1-.14-.87v-2.3a.356.356,0,0,1,.028-.168.388.388,0,0,1,.084-.112.416.416,0,0,1,.2-.028c.084,0,.168,0,.2.028s.084.056.084.112.028.112.028.168v2.3a2.471,2.471,0,0,0,.14.814,1.477,1.477,0,0,0,.449.561,1.237,1.237,0,0,0,.73.2,1.149,1.149,0,0,0,.7-.2,1.387,1.387,0,0,0,.449-.533,1.874,1.874,0,0,0,.168-.842v-2.329a.21.21,0,0,1,.028-.14l.084-.084a.416.416,0,0,1,.2-.028c.084,0,.168,0,.2.028s.084.056.084.112.028.112.028.168v2.329a2.825,2.825,0,0,1-.14.87,2.026,2.026,0,0,1-.393.674,1.673,1.673,0,0,1-.617.449A2.073,2.073,0,0,1,397.436,187.9Z" transform="translate(-305.924 -183.072)" fill="#fff"/>
      <path id="Path_858" data-name="Path 858" d="M435.009,187.871a.416.416,0,0,1-.2-.028c-.056-.028-.084-.056-.084-.112a.356.356,0,0,1-.028-.168v-4.153a.356.356,0,0,1,.028-.168.387.387,0,0,1,.084-.112.416.416,0,0,1,.2-.028h.168c.028,0,.084.028.112.028.028.028.056.028.084.084l1.8,2.582h-.224l1.8-2.61c.028-.028.056-.056.084-.056s.056-.028.112-.028h.14a.416.416,0,0,1,.2.028c.056.028.084.056.084.112a.356.356,0,0,1,.028.168v4.153a.21.21,0,0,1-.028.14.388.388,0,0,1-.084.112.7.7,0,0,1-.393,0c-.056-.028-.084-.056-.084-.112a.356.356,0,0,1-.028-.168V184.11l-1.459,2.161c0,.028-.028.028-.056.056s-.056.028-.084.056a.21.21,0,0,1-.14.028c-.056,0-.084,0-.112-.028s-.056-.028-.084-.056-.028-.056-.056-.084l-1.459-2.133v3.452a.21.21,0,0,1-.028.14.388.388,0,0,1-.084.112C435.177,187.871,435.093,187.871,435.009,187.871Z" transform="translate(-334.123 -183.072)" fill="#fff"/>
      <path id="Path_859" data-name="Path 859" d="M476.909,187.943a.416.416,0,0,1-.2-.028.387.387,0,0,1-.084-.112.355.355,0,0,1-.028-.168v-4.153a.21.21,0,0,1,.028-.14.219.219,0,0,1,.112-.112.416.416,0,0,1,.2-.028.482.482,0,0,1,.225.028c.028.028.084.056.112.084l2.582,3.648v-3.48a.21.21,0,0,1,.028-.14.388.388,0,0,1,.084-.112.7.7,0,0,1,.393,0c.056.028.084.056.084.112a.356.356,0,0,1,.028.168v4.125a.356.356,0,0,1-.028.168.219.219,0,0,1-.112.112.416.416,0,0,1-.2.028c-.084,0-.14,0-.168-.028a.492.492,0,0,1-.14-.112l-2.582-3.62v3.452a.356.356,0,0,1-.028.168.387.387,0,0,1-.084.112A.547.547,0,0,1,476.909,187.943Z" transform="translate(-364.265 -183.144)" fill="#fff"/>
      <path id="Path_860" data-name="Path 860" d="M516.109,187.871a.416.416,0,0,1-.2-.028c-.056-.028-.084-.056-.084-.112a.356.356,0,0,1-.028-.168v-4.153a.356.356,0,0,1,.028-.168.386.386,0,0,1,.084-.112.416.416,0,0,1,.2-.028h1.347a2.472,2.472,0,0,1,.926.168,2.073,2.073,0,0,1,.7.477,2.014,2.014,0,0,1,.449.758,2.667,2.667,0,0,1,.168.982,2.936,2.936,0,0,1-.168,1.01,2.015,2.015,0,0,1-.449.758,2.073,2.073,0,0,1-.7.477,2.472,2.472,0,0,1-.926.168h-1.347Zm.309-.617h1.038a1.742,1.742,0,0,0,.87-.225,1.34,1.34,0,0,0,.561-.617,1.883,1.883,0,0,0,.2-.926,2.074,2.074,0,0,0-.2-.954,1.493,1.493,0,0,0-.561-.617,1.742,1.742,0,0,0-.87-.225h-1.038Z" transform="translate(-392.465 -183.072)" fill="#fff"/>
      <path id="Path_861" data-name="Path 861" d="M556.816,187.45a.583.583,0,0,1,.056.168.154.154,0,0,1-.056.14.613.613,0,0,1-.14.112.283.283,0,0,1-.253.028.4.4,0,0,1-.168-.2l-1.712-3.648-1.684,3.62a.4.4,0,0,1-.168.2.283.283,0,0,1-.253-.028.28.28,0,0,1-.14-.112.123.123,0,0,1-.028-.14.52.52,0,0,1,.056-.2l1.964-4.1a.28.28,0,0,1,.112-.14.4.4,0,0,1,.168-.056.169.169,0,0,1,.112.028c.028,0,.056.028.084.056a.146.146,0,0,1,.056.112Zm-3.564-.926.224-.533h2.133l.224.533Z" transform="translate(-418.692 -183.072)" fill="#fff"/>
      <path id="Path_862" data-name="Path 862" d="M592.909,187.871a.416.416,0,0,1-.2-.028c-.056-.028-.084-.056-.084-.112a.356.356,0,0,1-.028-.168v-4.153a.356.356,0,0,1,.028-.168.387.387,0,0,1,.084-.112.416.416,0,0,1,.2-.028h.168c.028,0,.084.028.112.028.028.028.056.028.084.084l1.8,2.582h-.225l1.8-2.61c.028-.028.056-.056.084-.056s.056-.028.112-.028h.14a.416.416,0,0,1,.2.028c.056.028.084.056.084.112a.357.357,0,0,1,.028.168v4.153a.211.211,0,0,1-.028.14.388.388,0,0,1-.084.112.7.7,0,0,1-.393,0c-.056-.028-.084-.056-.084-.112a.356.356,0,0,1-.028-.168V184.11l-1.459,2.161c0,.028-.028.028-.056.056s-.056.028-.084.056a.21.21,0,0,1-.14.028c-.056,0-.084,0-.112-.028s-.056-.028-.084-.056-.028-.056-.056-.084l-1.459-2.133v3.452a.21.21,0,0,1-.028.14.387.387,0,0,1-.084.112C593.077,187.871,592.993,187.871,592.909,187.871Z" transform="translate(-447.712 -183.072)" fill="#fff"/>
    </g>
    <g id="Group_681" data-name="Group 681" transform="translate(167 114.368)">
      <path id="Path_863" data-name="Path 863" d="M79.854,73.231l-5.164-5.164a6.1,6.1,0,0,0-8.587,0l-5.135,5.164a6.1,6.1,0,0,0,0,8.587l3.115,3.115,2.049,2.049a6,6,0,0,0,4.294,1.768h.253a5.945,5.945,0,0,0,4.041-1.768l5.164-5.164a5.611,5.611,0,0,0,.533-.617A6.112,6.112,0,0,0,79.854,73.231Zm-3.4,5.164L71.3,83.559c-.056.056-.14.112-.2.168-.028.028-.056.028-.084.056a.1.1,0,0,1-.056.028.1.1,0,0,0-.056.028c-.028,0-.028.028-.056.028h-.084c-.028,0-.028,0-.056.028h-.084c-.028,0-.056.028-.112.028h-.14a1.1,1.1,0,0,1-.505-.112,1.177,1.177,0,0,1-.393-.253l-2.89-2.89L64.307,78.4a1.271,1.271,0,0,1,0-1.768l5.22-5.164a1.228,1.228,0,0,1,.9-.365,1.274,1.274,0,0,1,.9.365l5.164,5.164a1.277,1.277,0,0,1,.14,1.628C76.543,78.311,76.515,78.367,76.459,78.4Z" transform="translate(-59.2 -66.3)" fill="#fff"/>
      <path id="Path_864" data-name="Path 864" d="M92.832,111.775a5.61,5.61,0,0,1-.533.617l-5.164,5.164a6,6,0,0,1-4.041,1.768h-.253a6,6,0,0,1-4.294-1.768L76.5,115.507a47.174,47.174,0,0,1,2.554-4.237l2.919,2.862a1.177,1.177,0,0,0,.393.253,1.639,1.639,0,0,0,.505.112h.14a.169.169,0,0,0,.112-.028h.084c.028,0,.028,0,.056-.028h.084c.028,0,.028-.028.056-.028a.1.1,0,0,0,.056-.028.087.087,0,0,0,.056-.028c.028,0,.056-.028.084-.056a1.22,1.22,0,0,0,.2-.168l5.164-5.164c.056-.056.084-.112.14-.168l1.038.168Z" transform="translate(-71.645 -96.873)" fill="#fff"/>
      <path id="Path_865" data-name="Path 865" d="M126.982,73.231l-5.164-5.164a6,6,0,0,0-4.294-1.768,6.121,6.121,0,0,0-4.294,1.768L110.9,70.4l2.834,2.834a5.611,5.611,0,0,1,.533.617l2.357-2.357a1.288,1.288,0,0,1,1.8,0l5.164,5.164a1.271,1.271,0,0,1,0,1.768l-5.164,5.164a1.288,1.288,0,0,1-1.8,0l-2.357-2.357h0l-2.778-2.778a1.292,1.292,0,0,1-.365-.926c-.225-.224-.449-.477-.674-.7a.338.338,0,0,0-.14-.14l-.645-.645-.056-.056c-1.151-1.179-2.077-2.077-2.077-2.077h0a6.09,6.09,0,0,0,0,7.352,5.611,5.611,0,0,0,.533.617l3.845,3.845L113.2,87.01a6,6,0,0,0,4.294,1.768,6.121,6.121,0,0,0,4.294-1.768l5.164-5.164A6.106,6.106,0,0,0,126.982,73.231Z" transform="translate(-93.082 -66.3)" fill="#fff"/>
      <path id="Path_866" data-name="Path 866" d="M174.654,73.231l-5.164-5.164a5.8,5.8,0,0,0-2.133-1.375,6.11,6.11,0,0,0-6.454,1.375l-2.385,2.385,2.778,2.778a6.324,6.324,0,0,1,.589.674l2.441-2.441a1.228,1.228,0,0,1,.9-.365,1.274,1.274,0,0,1,.9.365l5.164,5.164a1.271,1.271,0,0,1,0,1.768l-5.164,5.164a1.228,1.228,0,0,1-.9.365,1.274,1.274,0,0,1-.9-.365l-2.189-2.189h0l-.253-.253L159.164,78.4a1.281,1.281,0,0,1-.365-.814c-.253-.281-.505-.533-.758-.786a.744.744,0,0,0-.14-.168l-1.291-1.291-.253-.253-.225-.225c-.421-.421-.758-.758-.9-.87l-.056-.056h0a6.106,6.106,0,0,0,0,7.212,3.386,3.386,0,0,0,.589.674l2.778,2.778,1.151,1.151,1.235,1.235a6,6,0,0,0,4.294,1.768,6.121,6.121,0,0,0,4.294-1.768l5.164-5.164A6.124,6.124,0,0,0,174.654,73.231Z" transform="translate(-127.397 -66.3)" fill="#fff"/>
      <path id="Path_867" data-name="Path 867" d="M176.807,71.1a1.274,1.274,0,0,0-.9.365L173.468,73.9a3.385,3.385,0,0,0-.589-.674L170.1,70.453l2.385-2.385a6,6,0,0,1,4.294-1.768,6.149,6.149,0,0,1,2.161.393C181.325,68.994,176.807,71.1,176.807,71.1Z" transform="translate(-138.979 -66.3)" fill="#fff"/>
    </g>
  </g>
</svg>
